<?xml version="1.0" encoding="UTF-8"?><svg id="_层_2" xmlns="http://www.w3.org/2000/svg" viewBox="0 0 193.46 234.14"><g id="_层_1-2"><g><path d="M193.46,171.56V62.66c0-1.5-.81-2.9-2.16-3.76L99.67,.85c-1.77-1.12-4.03-1.13-5.81-.03l-14.21,8.8V224.54l14.26,8.79c1.76,1.09,3.98,1.09,5.74,0l14.49-8.93-.32-171.24c0-2.51,3.15-3.99,5.42-2.53l37.81,24.25c1.48,.95,2.36,2.49,2.36,4.12v52.39c0,1.66-.9,3.22-2.43,4.17l-28.8,17.92c-1.52,.94-2.43,2.5-2.43,4.17v51.02c0,3.65,4.1,5.85,7.21,3.87l58.36-37.22c1.35-.86,2.15-2.26,2.15-3.75"/><path d="M67.87,207.41v-49.41c0-1.65-.89-3.2-2.39-4.15l-28.79-18.19c-1.5-.95-2.4-2.49-2.4-4.15V44.12c0-2.47-2.76-3.96-4.86-2.62L2.17,58.73c-1.36,.86-2.17,2.26-2.17,3.76v109.24c0,1.5,.81,2.91,2.18,3.76l57.59,36.29c3.5,2.21,8.1-.27,8.1-4.38"/></g></g></svg>